# xmcd CD database file
#
# Track frame offsets:
#	150
#	27422
#	43977
#
# Disc length: 849 seconds
#
# Revision: 0
# Processed by: cddbd v1.5PL3 Copyright (c) Steve Scherf et al.
# Submitted via: CDex 1.51
#
DISCID=23034f03
DTITLE=HAKUEI - baby 999 xxxx xx xxx xxxxxx xxxxxxxx xxxxxxx
DYEAR=2001
DGENRE=JPop
TTITLE0=baby 999 xxxx xx xxx xxxxxx xxxxxxxx xxxxxxx
TTITLE1=猿の惑星
TTITLE2=侍
EXTD=YEAR: 2001
EXTT0=
EXTT1=
EXTT2=
PLAYORDER=
